<svg xmlns="http://www.w3.org/2000/svg" viewBox="0 0 1237 950" width="1237" height="950">
  <rect width="1237" height="950" fill="#ffffff"/>
  <rect x="40" y="40" width="1157" height="870" fill="#fbfbfb" stroke="#c9c9c9" stroke-width="3"/>

  
  <g transform="translate(70, 70) rotate(0)">
    <path d="M0 60 A60 60 0 0 1 60 0" fill="none" stroke="#c9c9c9" stroke-width="3"/>
    <circle cx="18" cy="18" r="13" fill="none" stroke="#c9c9c9" stroke-width="2.5"/>
    <path d="M13 18v-4a5 5 0 0 1 10 0v4" fill="none" stroke="#c9c9c9" stroke-width="2"/>
    <rect x="10" y="17" width="16" height="11" rx="2" fill="#c9c9c9"/>
  </g>
  
  <g transform="translate(1107, 70) rotate(90)">
    <path d="M0 60 A60 60 0 0 1 60 0" fill="none" stroke="#c9c9c9" stroke-width="3"/>
    <circle cx="18" cy="18" r="13" fill="none" stroke="#c9c9c9" stroke-width="2.5"/>
    <path d="M13 18v-4a5 5 0 0 1 10 0v4" fill="none" stroke="#c9c9c9" stroke-width="2"/>
    <rect x="10" y="17" width="16" height="11" rx="2" fill="#c9c9c9"/>
  </g>
  
  <g transform="translate(70, 820) rotate(-90)">
    <path d="M0 60 A60 60 0 0 1 60 0" fill="none" stroke="#c9c9c9" stroke-width="3"/>
    <circle cx="18" cy="18" r="13" fill="none" stroke="#c9c9c9" stroke-width="2.5"/>
    <path d="M13 18v-4a5 5 0 0 1 10 0v4" fill="none" stroke="#c9c9c9" stroke-width="2"/>
    <rect x="10" y="17" width="16" height="11" rx="2" fill="#c9c9c9"/>
  </g>
  
  <g transform="translate(1107, 820) rotate(180)">
    <path d="M0 60 A60 60 0 0 1 60 0" fill="none" stroke="#c9c9c9" stroke-width="3"/>
    <circle cx="18" cy="18" r="13" fill="none" stroke="#c9c9c9" stroke-width="2.5"/>
    <path d="M13 18v-4a5 5 0 0 1 10 0v4" fill="none" stroke="#c9c9c9" stroke-width="2"/>
    <rect x="10" y="17" width="16" height="11" rx="2" fill="#c9c9c9"/>
  </g>

  <g transform="translate(618.5, 165)">
    <circle r="72" fill="#ef7f1a"/>
    <circle r="72" fill="none" stroke="#ef7f1a" stroke-width="10" stroke-dasharray="6 6" opacity="0.6"/>
    <g fill="#ffffff" transform="translate(-22,-24)">
      <path d="M4 4h36v10a18 18 0 0 1-36 0V4z" fill="none" stroke="#ffffff" stroke-width="3"/>
      <path d="M4 8H-6a10 10 0 0 0 10 14" fill="none" stroke="#ffffff" stroke-width="3"/>
      <path d="M40 8h10a10 10 0 0 1-10 14" fill="none" stroke="#ffffff" stroke-width="3"/>
      <rect x="18" y="32" width="8" height="12" fill="#ffffff"/>
      <rect x="10" y="44" width="24" height="8" rx="2" fill="#ffffff"/>
    </g>
  </g>

  <text x="50%" y="330" text-anchor="middle" font-family="'Poppins','Segoe UI',sans-serif" font-weight="800" font-size="58" letter-spacing="2" fill="#ef7f1a">CERTIFICATE OF ACHIEVEMENT</text>

  <text x="50%" y="400" text-anchor="middle" font-family="'Segoe UI',Arial,sans-serif" font-size="24" letter-spacing="3" fill="#8a8a8a">PRESENTED TO</text>

  <text x="50%" y="480" text-anchor="middle" font-family="Georgia, 'Times New Roman', serif" font-size="66" fill="#1a1a1a">Dino Bajramovic</text>
  <line x1="298.5" y1="510" x2="938.5" y2="510" stroke="#d5d5d5" stroke-width="2"/>

  <text x="50%" y="570" text-anchor="middle" font-family="'Segoe UI',Arial,sans-serif" font-size="22" letter-spacing="2" fill="#8a8a8a">FOR THE SUCCESSFUL COMPLETION OF</text>

  <text x="50%" y="700" text-anchor="middle" font-family="'Segoe UI',Arial,sans-serif" font-size="46" fill="#1a1a1a">The Art of Phishing</text>

  <text x="50%" y="804" text-anchor="middle" font-family="'Segoe UI',Arial,sans-serif" font-size="24" fill="#8a8a8a">DURATION: 2 MINUTES</text>
  <text x="50%" y="852" text-anchor="middle" font-family="'Segoe UI',Arial,sans-serif" font-size="24" fill="#8a8a8a">JUNE 25, 2026</text>
</svg>